<mxfile host="app.diagrams.net" modified="2021-05-12T06:23:23.116Z" agent="5.0 (Macintosh; Intel Mac OS X 10_14_6) AppleWebKit/537.36 (KHTML, like Gecko) Chrome/90.0.4430.93 Safari/537.36" etag="oT7EXvKrUTk9zYPejf9d" version="14.6.12" type="github">
  <diagram id="S7iFQqADGbCx8YZnIeWo" name="bean生命周期">
    <mxGraphModel dx="2253" dy="794" grid="1" gridSize="10" guides="1" tooltips="1" connect="1" arrows="1" fold="1" page="1" pageScale="1" pageWidth="827" pageHeight="1169" math="0" shadow="0">
      <root>
        <mxCell id="0" />
        <mxCell id="1" parent="0" />
        <mxCell id="FoT4ogBL0ZoOoOP0HEYb-7" value="" style="edgeStyle=orthogonalEdgeStyle;rounded=0;orthogonalLoop=1;jettySize=auto;html=1;fontColor=#000000;labelBackgroundColor=#FFFFFF;" edge="1" parent="1" source="FoT4ogBL0ZoOoOP0HEYb-1" target="FoT4ogBL0ZoOoOP0HEYb-6">
          <mxGeometry relative="1" as="geometry" />
        </mxCell>
        <mxCell id="FoT4ogBL0ZoOoOP0HEYb-9" value="" style="edgeStyle=orthogonalEdgeStyle;rounded=0;orthogonalLoop=1;jettySize=auto;html=1;labelBackgroundColor=#FFFFFF;fontColor=#000000;" edge="1" parent="1" source="FoT4ogBL0ZoOoOP0HEYb-1" target="FoT4ogBL0ZoOoOP0HEYb-8">
          <mxGeometry relative="1" as="geometry" />
        </mxCell>
        <mxCell id="FoT4ogBL0ZoOoOP0HEYb-1" value="&lt;pre style=&quot;font-family: monaco, monospace; font-size: 9pt;&quot;&gt;&lt;span style=&quot;font-style: italic;&quot;&gt;BeanNameAware&lt;/span&gt;&lt;/pre&gt;" style="rounded=1;whiteSpace=wrap;html=1;absoluteArcSize=1;arcSize=14;strokeWidth=2;labelBackgroundColor=#CCE5FF;fontColor=#99004D;" vertex="1" parent="1">
          <mxGeometry x="80" y="40" width="120" height="40" as="geometry" />
        </mxCell>
        <mxCell id="FoT4ogBL0ZoOoOP0HEYb-6" value="&lt;pre style=&quot;color: rgb(169, 183, 198); font-family: monaco, monospace; font-size: 9pt;&quot;&gt;&lt;pre style=&quot;font-family: &amp;quot;monaco&amp;quot; , monospace ; font-size: 9pt&quot;&gt;&lt;span style=&quot;color: #629755 ; font-style: italic&quot;&gt;setBeanName&lt;/span&gt;&lt;/pre&gt;&lt;/pre&gt;" style="rounded=1;whiteSpace=wrap;html=1;absoluteArcSize=1;arcSize=14;strokeWidth=2;labelBackgroundColor=#FFFFFF;" vertex="1" parent="1">
          <mxGeometry x="280" y="40" width="120" height="40" as="geometry" />
        </mxCell>
        <mxCell id="FoT4ogBL0ZoOoOP0HEYb-13" value="" style="edgeStyle=orthogonalEdgeStyle;rounded=0;orthogonalLoop=1;jettySize=auto;html=1;labelBackgroundColor=#FFFFFF;fontColor=#000000;" edge="1" parent="1" source="FoT4ogBL0ZoOoOP0HEYb-8" target="FoT4ogBL0ZoOoOP0HEYb-12">
          <mxGeometry relative="1" as="geometry" />
        </mxCell>
        <mxCell id="FoT4ogBL0ZoOoOP0HEYb-15" value="" style="edgeStyle=orthogonalEdgeStyle;rounded=0;orthogonalLoop=1;jettySize=auto;html=1;labelBackgroundColor=#FFFFFF;fontColor=#000000;" edge="1" parent="1" source="FoT4ogBL0ZoOoOP0HEYb-8" target="FoT4ogBL0ZoOoOP0HEYb-14">
          <mxGeometry relative="1" as="geometry" />
        </mxCell>
        <mxCell id="FoT4ogBL0ZoOoOP0HEYb-8" value="&lt;pre style=&quot;font-family: monaco, monospace; font-size: 9pt;&quot;&gt;&lt;pre style=&quot;font-family: monaco, monospace; font-size: 9pt;&quot;&gt;&lt;span style=&quot;font-style: italic;&quot;&gt;BeanClassLoaderAware&lt;/span&gt;&lt;/pre&gt;&lt;/pre&gt;" style="rounded=1;whiteSpace=wrap;html=1;absoluteArcSize=1;arcSize=14;strokeWidth=2;labelBackgroundColor=#CCE5FF;fontColor=#99004D;" vertex="1" parent="1">
          <mxGeometry x="50" y="160" width="180" height="40" as="geometry" />
        </mxCell>
        <mxCell id="FoT4ogBL0ZoOoOP0HEYb-12" value="&lt;pre style=&quot;color: rgb(169 , 183 , 198) ; font-family: &amp;quot;monaco&amp;quot; , monospace ; font-size: 9pt&quot;&gt;&lt;pre style=&quot;font-family: monaco, monospace; font-size: 9pt;&quot;&gt;&lt;pre style=&quot;font-family: &amp;quot;monaco&amp;quot; , monospace ; font-size: 9pt&quot;&gt;&lt;span style=&quot;color: #629755 ; font-style: italic&quot;&gt;setBeanClassLoader&lt;/span&gt;&lt;/pre&gt;&lt;/pre&gt;&lt;/pre&gt;" style="rounded=1;whiteSpace=wrap;html=1;absoluteArcSize=1;arcSize=14;strokeWidth=2;labelBackgroundColor=#FFFFFF;" vertex="1" parent="1">
          <mxGeometry x="310" y="160" width="180" height="40" as="geometry" />
        </mxCell>
        <mxCell id="FoT4ogBL0ZoOoOP0HEYb-17" value="" style="edgeStyle=orthogonalEdgeStyle;rounded=0;orthogonalLoop=1;jettySize=auto;html=1;labelBackgroundColor=#FFFFFF;fontColor=#000000;" edge="1" parent="1" source="FoT4ogBL0ZoOoOP0HEYb-14" target="FoT4ogBL0ZoOoOP0HEYb-16">
          <mxGeometry relative="1" as="geometry" />
        </mxCell>
        <mxCell id="FoT4ogBL0ZoOoOP0HEYb-19" value="" style="edgeStyle=orthogonalEdgeStyle;rounded=0;orthogonalLoop=1;jettySize=auto;html=1;labelBackgroundColor=#FFFFFF;fontColor=#000000;" edge="1" parent="1" source="FoT4ogBL0ZoOoOP0HEYb-14" target="FoT4ogBL0ZoOoOP0HEYb-18">
          <mxGeometry relative="1" as="geometry" />
        </mxCell>
        <mxCell id="FoT4ogBL0ZoOoOP0HEYb-14" value="&lt;pre style=&quot;font-family: monaco, monospace; font-size: 9pt;&quot;&gt;&lt;span style=&quot;font-style: italic;&quot;&gt;BeanFactoryAware&lt;/span&gt;&lt;/pre&gt;" style="rounded=1;whiteSpace=wrap;html=1;absoluteArcSize=1;arcSize=14;strokeWidth=2;labelBackgroundColor=#CCE5FF;fontColor=#99004D;" vertex="1" parent="1">
          <mxGeometry x="50" y="280" width="180" height="40" as="geometry" />
        </mxCell>
        <mxCell id="FoT4ogBL0ZoOoOP0HEYb-16" value="&lt;pre style=&quot;color: rgb(169, 183, 198); font-family: monaco, monospace; font-size: 9pt;&quot;&gt;&lt;pre style=&quot;font-family: &amp;quot;monaco&amp;quot; , monospace ; font-size: 9pt&quot;&gt;&lt;span style=&quot;color: #629755 ; font-style: italic&quot;&gt;setBeanFactory&lt;/span&gt;&lt;/pre&gt;&lt;/pre&gt;" style="rounded=1;whiteSpace=wrap;html=1;absoluteArcSize=1;arcSize=14;strokeWidth=2;labelBackgroundColor=#FFFFFF;" vertex="1" parent="1">
          <mxGeometry x="310" y="280" width="180" height="40" as="geometry" />
        </mxCell>
        <mxCell id="FoT4ogBL0ZoOoOP0HEYb-21" value="" style="edgeStyle=orthogonalEdgeStyle;rounded=0;orthogonalLoop=1;jettySize=auto;html=1;labelBackgroundColor=#FFFFFF;fontColor=#000000;" edge="1" parent="1" source="FoT4ogBL0ZoOoOP0HEYb-18" target="FoT4ogBL0ZoOoOP0HEYb-20">
          <mxGeometry relative="1" as="geometry" />
        </mxCell>
        <mxCell id="FoT4ogBL0ZoOoOP0HEYb-23" value="" style="edgeStyle=orthogonalEdgeStyle;rounded=0;orthogonalLoop=1;jettySize=auto;html=1;labelBackgroundColor=#FFFFFF;fontColor=#000000;" edge="1" parent="1" source="FoT4ogBL0ZoOoOP0HEYb-18" target="FoT4ogBL0ZoOoOP0HEYb-22">
          <mxGeometry relative="1" as="geometry" />
        </mxCell>
        <mxCell id="FoT4ogBL0ZoOoOP0HEYb-18" value="&lt;pre style=&quot;font-family: monaco, monospace; font-size: 9pt;&quot;&gt;&lt;pre style=&quot;font-family: &amp;quot;monaco&amp;quot; , monospace ; font-size: 9pt&quot;&gt;&lt;span style=&quot;font-style: italic;&quot;&gt;EnvironmentAware&lt;/span&gt;&lt;/pre&gt;&lt;/pre&gt;" style="rounded=1;whiteSpace=wrap;html=1;absoluteArcSize=1;arcSize=14;strokeWidth=2;labelBackgroundColor=#CCE5FF;fontColor=#99004D;" vertex="1" parent="1">
          <mxGeometry x="50" y="400" width="180" height="40" as="geometry" />
        </mxCell>
        <mxCell id="FoT4ogBL0ZoOoOP0HEYb-20" value="&lt;pre style=&quot;color: rgb(169, 183, 198); font-family: monaco, monospace; font-size: 9pt;&quot;&gt;&lt;pre style=&quot;font-family: &amp;quot;monaco&amp;quot; , monospace ; font-size: 9pt&quot;&gt;&lt;pre style=&quot;font-family: &amp;quot;monaco&amp;quot; , monospace ; font-size: 9pt&quot;&gt;&lt;span style=&quot;color: #629755 ; font-style: italic&quot;&gt;setEnvironment&lt;/span&gt;&lt;/pre&gt;&lt;/pre&gt;&lt;/pre&gt;" style="rounded=1;whiteSpace=wrap;html=1;absoluteArcSize=1;arcSize=14;strokeWidth=2;labelBackgroundColor=#FFFFFF;" vertex="1" parent="1">
          <mxGeometry x="310" y="400" width="180" height="40" as="geometry" />
        </mxCell>
        <mxCell id="FoT4ogBL0ZoOoOP0HEYb-25" value="" style="edgeStyle=orthogonalEdgeStyle;rounded=0;orthogonalLoop=1;jettySize=auto;html=1;labelBackgroundColor=#FFFFFF;fontColor=#000000;" edge="1" parent="1" source="FoT4ogBL0ZoOoOP0HEYb-22" target="FoT4ogBL0ZoOoOP0HEYb-24">
          <mxGeometry relative="1" as="geometry" />
        </mxCell>
        <mxCell id="FoT4ogBL0ZoOoOP0HEYb-27" value="" style="edgeStyle=orthogonalEdgeStyle;rounded=0;orthogonalLoop=1;jettySize=auto;html=1;labelBackgroundColor=#FFFFFF;fontColor=#000000;" edge="1" parent="1" source="FoT4ogBL0ZoOoOP0HEYb-22" target="FoT4ogBL0ZoOoOP0HEYb-26">
          <mxGeometry relative="1" as="geometry" />
        </mxCell>
        <mxCell id="FoT4ogBL0ZoOoOP0HEYb-22" value="&lt;pre style=&quot;font-family: monaco, monospace; font-size: 9pt;&quot;&gt;&lt;pre style=&quot;font-family: &amp;quot;monaco&amp;quot; , monospace ; font-size: 9pt&quot;&gt;&lt;pre style=&quot;font-family: monaco, monospace; font-size: 9pt;&quot;&gt;&lt;span style=&quot;font-style: italic;&quot;&gt;EmbeddedValueResolverAware&lt;/span&gt;&lt;/pre&gt;&lt;/pre&gt;&lt;/pre&gt;" style="rounded=1;whiteSpace=wrap;html=1;absoluteArcSize=1;arcSize=14;strokeWidth=2;labelBackgroundColor=#CCE5FF;fontColor=#99004D;" vertex="1" parent="1">
          <mxGeometry x="35" y="520" width="210" height="40" as="geometry" />
        </mxCell>
        <mxCell id="FoT4ogBL0ZoOoOP0HEYb-24" value="&lt;pre style=&quot;color: rgb(169 , 183 , 198) ; font-family: &amp;quot;monaco&amp;quot; , monospace ; font-size: 9pt&quot;&gt;&lt;pre style=&quot;font-family: &amp;quot;monaco&amp;quot; , monospace ; font-size: 9pt&quot;&gt;&lt;pre style=&quot;font-family: monaco, monospace; font-size: 9pt;&quot;&gt;&lt;pre style=&quot;font-family: &amp;quot;monaco&amp;quot; , monospace ; font-size: 9pt&quot;&gt;&lt;span style=&quot;color: #629755 ; font-style: italic&quot;&gt;setEmbeddedValueResolver&lt;/span&gt;&lt;/pre&gt;&lt;/pre&gt;&lt;/pre&gt;&lt;/pre&gt;" style="rounded=1;whiteSpace=wrap;html=1;absoluteArcSize=1;arcSize=14;strokeWidth=2;labelBackgroundColor=#FFFFFF;" vertex="1" parent="1">
          <mxGeometry x="325" y="520" width="210" height="40" as="geometry" />
        </mxCell>
        <mxCell id="FoT4ogBL0ZoOoOP0HEYb-31" value="" style="edgeStyle=orthogonalEdgeStyle;rounded=0;orthogonalLoop=1;jettySize=auto;html=1;labelBackgroundColor=#FFFFFF;fontColor=#000000;" edge="1" parent="1" source="FoT4ogBL0ZoOoOP0HEYb-26" target="FoT4ogBL0ZoOoOP0HEYb-30">
          <mxGeometry relative="1" as="geometry" />
        </mxCell>
        <mxCell id="FoT4ogBL0ZoOoOP0HEYb-33" value="" style="edgeStyle=orthogonalEdgeStyle;rounded=0;orthogonalLoop=1;jettySize=auto;html=1;labelBackgroundColor=#FFFFFF;fontColor=#000000;" edge="1" parent="1" source="FoT4ogBL0ZoOoOP0HEYb-26" target="FoT4ogBL0ZoOoOP0HEYb-32">
          <mxGeometry relative="1" as="geometry" />
        </mxCell>
        <mxCell id="FoT4ogBL0ZoOoOP0HEYb-73" value="" style="edgeStyle=orthogonalEdgeStyle;rounded=0;orthogonalLoop=1;jettySize=auto;html=1;labelBackgroundColor=#FFFFFF;fontColor=#000000;" edge="1" parent="1" source="FoT4ogBL0ZoOoOP0HEYb-26" target="FoT4ogBL0ZoOoOP0HEYb-72">
          <mxGeometry relative="1" as="geometry" />
        </mxCell>
        <mxCell id="FoT4ogBL0ZoOoOP0HEYb-26" value="&lt;pre style=&quot;font-family: monaco, monospace; font-size: 9pt;&quot;&gt;&lt;pre style=&quot;font-family: &amp;quot;monaco&amp;quot; , monospace ; font-size: 9pt&quot;&gt;&lt;pre style=&quot;font-family: monaco, monospace; font-size: 9pt;&quot;&gt;&lt;pre style=&quot;font-family: &amp;quot;monaco&amp;quot; , monospace ; font-size: 9pt&quot;&gt;&lt;span style=&quot;font-style: italic;&quot;&gt;ResourceLoaderAware&lt;/span&gt;&lt;/pre&gt;&lt;/pre&gt;&lt;/pre&gt;&lt;/pre&gt;" style="rounded=1;whiteSpace=wrap;html=1;absoluteArcSize=1;arcSize=14;strokeWidth=2;labelBackgroundColor=#CCE5FF;fontColor=#99004D;" vertex="1" parent="1">
          <mxGeometry x="52.5" y="640" width="175" height="40" as="geometry" />
        </mxCell>
        <mxCell id="FoT4ogBL0ZoOoOP0HEYb-30" value="&lt;pre style=&quot;color: rgb(169 , 183 , 198) ; font-family: &amp;quot;monaco&amp;quot; , monospace ; font-size: 9pt&quot;&gt;&lt;pre style=&quot;font-family: &amp;quot;monaco&amp;quot; , monospace ; font-size: 9pt&quot;&gt;&lt;pre style=&quot;font-family: monaco, monospace; font-size: 9pt;&quot;&gt;&lt;pre style=&quot;font-family: &amp;quot;monaco&amp;quot; , monospace ; font-size: 9pt&quot;&gt;&lt;pre style=&quot;font-family: &amp;quot;monaco&amp;quot; , monospace ; font-size: 9pt&quot;&gt;&lt;span style=&quot;color: #629755 ; font-style: italic&quot;&gt;setResourceLoader&lt;/span&gt;&lt;/pre&gt;&lt;/pre&gt;&lt;/pre&gt;&lt;/pre&gt;&lt;/pre&gt;" style="rounded=1;whiteSpace=wrap;html=1;absoluteArcSize=1;arcSize=14;strokeWidth=2;labelBackgroundColor=#FFFFFF;" vertex="1" parent="1">
          <mxGeometry x="307.5" y="640" width="175" height="40" as="geometry" />
        </mxCell>
        <mxCell id="FoT4ogBL0ZoOoOP0HEYb-35" value="" style="edgeStyle=orthogonalEdgeStyle;rounded=0;orthogonalLoop=1;jettySize=auto;html=1;labelBackgroundColor=#FFFFFF;fontColor=#000000;" edge="1" parent="1" source="FoT4ogBL0ZoOoOP0HEYb-32" target="FoT4ogBL0ZoOoOP0HEYb-34">
          <mxGeometry relative="1" as="geometry" />
        </mxCell>
        <mxCell id="FoT4ogBL0ZoOoOP0HEYb-37" value="" style="edgeStyle=orthogonalEdgeStyle;rounded=0;orthogonalLoop=1;jettySize=auto;html=1;labelBackgroundColor=#FFFFFF;fontColor=#000000;" edge="1" parent="1" source="FoT4ogBL0ZoOoOP0HEYb-32" target="FoT4ogBL0ZoOoOP0HEYb-36">
          <mxGeometry relative="1" as="geometry" />
        </mxCell>
        <mxCell id="FoT4ogBL0ZoOoOP0HEYb-75" value="" style="edgeStyle=orthogonalEdgeStyle;rounded=0;orthogonalLoop=1;jettySize=auto;html=1;labelBackgroundColor=#FFFFFF;fontColor=#000000;" edge="1" parent="1" source="FoT4ogBL0ZoOoOP0HEYb-32" target="FoT4ogBL0ZoOoOP0HEYb-74">
          <mxGeometry relative="1" as="geometry" />
        </mxCell>
        <mxCell id="FoT4ogBL0ZoOoOP0HEYb-32" value="&lt;pre style=&quot;font-family: monaco, monospace; font-size: 9pt;&quot;&gt;&lt;pre style=&quot;font-family: &amp;quot;monaco&amp;quot; , monospace ; font-size: 9pt&quot;&gt;&lt;pre style=&quot;font-family: monaco, monospace; font-size: 9pt;&quot;&gt;&lt;pre style=&quot;font-family: &amp;quot;monaco&amp;quot; , monospace ; font-size: 9pt&quot;&gt;&lt;pre style=&quot;font-family: &amp;quot;monaco&amp;quot; , monospace ; font-size: 9pt&quot;&gt;&lt;span style=&quot;font-style: italic;&quot;&gt;ApplicationEventPublisherAware&lt;/span&gt;&lt;/pre&gt;&lt;/pre&gt;&lt;/pre&gt;&lt;/pre&gt;&lt;/pre&gt;" style="rounded=1;whiteSpace=wrap;html=1;absoluteArcSize=1;arcSize=14;strokeWidth=2;labelBackgroundColor=#CCE5FF;fontColor=#99004D;" vertex="1" parent="1">
          <mxGeometry x="16.25" y="760" width="247.5" height="40" as="geometry" />
        </mxCell>
        <mxCell id="FoT4ogBL0ZoOoOP0HEYb-34" value="&lt;pre style=&quot;color: rgb(169 , 183 , 198) ; font-family: &amp;quot;monaco&amp;quot; , monospace ; font-size: 9pt&quot;&gt;&lt;pre style=&quot;font-family: &amp;quot;monaco&amp;quot; , monospace ; font-size: 9pt&quot;&gt;&lt;pre style=&quot;font-family: monaco, monospace; font-size: 9pt;&quot;&gt;&lt;pre style=&quot;font-family: &amp;quot;monaco&amp;quot; , monospace ; font-size: 9pt&quot;&gt;&lt;pre style=&quot;font-family: &amp;quot;monaco&amp;quot; , monospace ; font-size: 9pt&quot;&gt;&lt;pre style=&quot;font-family: &amp;quot;monaco&amp;quot; , monospace ; font-size: 9pt&quot;&gt;&lt;span style=&quot;color: #629755 ; font-style: italic&quot;&gt;setApplicationEventPublisher&lt;/span&gt;&lt;/pre&gt;&lt;/pre&gt;&lt;/pre&gt;&lt;/pre&gt;&lt;/pre&gt;&lt;/pre&gt;" style="rounded=1;whiteSpace=wrap;html=1;absoluteArcSize=1;arcSize=14;strokeWidth=2;labelBackgroundColor=#FFFFFF;" vertex="1" parent="1">
          <mxGeometry x="343.75" y="760" width="247.5" height="40" as="geometry" />
        </mxCell>
        <mxCell id="FoT4ogBL0ZoOoOP0HEYb-39" value="" style="edgeStyle=orthogonalEdgeStyle;rounded=0;orthogonalLoop=1;jettySize=auto;html=1;labelBackgroundColor=#FFFFFF;fontColor=#000000;" edge="1" parent="1" source="FoT4ogBL0ZoOoOP0HEYb-36" target="FoT4ogBL0ZoOoOP0HEYb-38">
          <mxGeometry relative="1" as="geometry" />
        </mxCell>
        <mxCell id="FoT4ogBL0ZoOoOP0HEYb-41" value="" style="edgeStyle=orthogonalEdgeStyle;rounded=0;orthogonalLoop=1;jettySize=auto;html=1;labelBackgroundColor=#FFFFFF;fontColor=#000000;" edge="1" parent="1" source="FoT4ogBL0ZoOoOP0HEYb-36" target="FoT4ogBL0ZoOoOP0HEYb-40">
          <mxGeometry relative="1" as="geometry" />
        </mxCell>
        <mxCell id="FoT4ogBL0ZoOoOP0HEYb-77" value="" style="edgeStyle=orthogonalEdgeStyle;rounded=0;orthogonalLoop=1;jettySize=auto;html=1;labelBackgroundColor=#FFFFFF;fontColor=#000000;" edge="1" parent="1" source="FoT4ogBL0ZoOoOP0HEYb-36" target="FoT4ogBL0ZoOoOP0HEYb-76">
          <mxGeometry relative="1" as="geometry" />
        </mxCell>
        <mxCell id="FoT4ogBL0ZoOoOP0HEYb-36" value="&lt;pre style=&quot;font-family: monaco, monospace; font-size: 9pt;&quot;&gt;&lt;pre style=&quot;font-family: &amp;quot;monaco&amp;quot; , monospace ; font-size: 9pt&quot;&gt;&lt;pre style=&quot;font-family: monaco, monospace; font-size: 9pt;&quot;&gt;&lt;pre style=&quot;font-family: &amp;quot;monaco&amp;quot; , monospace ; font-size: 9pt&quot;&gt;&lt;pre style=&quot;font-family: &amp;quot;monaco&amp;quot; , monospace ; font-size: 9pt&quot;&gt;&lt;pre style=&quot;font-family: &amp;quot;monaco&amp;quot; , monospace ; font-size: 9pt&quot;&gt;&lt;span style=&quot;font-style: italic;&quot;&gt;MessageSourceAware&lt;/span&gt;&lt;/pre&gt;&lt;/pre&gt;&lt;/pre&gt;&lt;/pre&gt;&lt;/pre&gt;&lt;/pre&gt;" style="rounded=1;whiteSpace=wrap;html=1;absoluteArcSize=1;arcSize=14;strokeWidth=2;labelBackgroundColor=#CCE5FF;fontColor=#99004D;" vertex="1" parent="1">
          <mxGeometry x="43.129999999999995" y="880" width="193.75" height="40" as="geometry" />
        </mxCell>
        <mxCell id="FoT4ogBL0ZoOoOP0HEYb-38" value="&lt;pre style=&quot;color: rgb(169 , 183 , 198) ; font-family: &amp;quot;monaco&amp;quot; , monospace ; font-size: 9pt&quot;&gt;&lt;pre style=&quot;font-family: &amp;quot;monaco&amp;quot; , monospace ; font-size: 9pt&quot;&gt;&lt;pre style=&quot;font-family: monaco, monospace; font-size: 9pt;&quot;&gt;&lt;pre style=&quot;font-family: &amp;quot;monaco&amp;quot; , monospace ; font-size: 9pt&quot;&gt;&lt;pre style=&quot;font-family: &amp;quot;monaco&amp;quot; , monospace ; font-size: 9pt&quot;&gt;&lt;pre style=&quot;font-family: &amp;quot;monaco&amp;quot; , monospace ; font-size: 9pt&quot;&gt;&lt;pre style=&quot;font-family: &amp;quot;monaco&amp;quot; , monospace ; font-size: 9pt&quot;&gt;&lt;span style=&quot;color: #629755 ; font-style: italic&quot;&gt;setMessageSource&lt;/span&gt;&lt;/pre&gt;&lt;/pre&gt;&lt;/pre&gt;&lt;/pre&gt;&lt;/pre&gt;&lt;/pre&gt;&lt;/pre&gt;" style="rounded=1;whiteSpace=wrap;html=1;absoluteArcSize=1;arcSize=14;strokeWidth=2;labelBackgroundColor=#FFFFFF;" vertex="1" parent="1">
          <mxGeometry x="316.88" y="880" width="193.75" height="40" as="geometry" />
        </mxCell>
        <mxCell id="FoT4ogBL0ZoOoOP0HEYb-43" value="" style="edgeStyle=orthogonalEdgeStyle;rounded=0;orthogonalLoop=1;jettySize=auto;html=1;labelBackgroundColor=#FFFFFF;fontColor=#000000;" edge="1" parent="1" source="FoT4ogBL0ZoOoOP0HEYb-40" target="FoT4ogBL0ZoOoOP0HEYb-42">
          <mxGeometry relative="1" as="geometry" />
        </mxCell>
        <mxCell id="FoT4ogBL0ZoOoOP0HEYb-45" value="" style="edgeStyle=orthogonalEdgeStyle;rounded=0;orthogonalLoop=1;jettySize=auto;html=1;labelBackgroundColor=#FFFFFF;fontColor=#000000;" edge="1" parent="1" source="FoT4ogBL0ZoOoOP0HEYb-40" target="FoT4ogBL0ZoOoOP0HEYb-44">
          <mxGeometry relative="1" as="geometry" />
        </mxCell>
        <mxCell id="FoT4ogBL0ZoOoOP0HEYb-79" value="" style="edgeStyle=orthogonalEdgeStyle;rounded=0;orthogonalLoop=1;jettySize=auto;html=1;labelBackgroundColor=#FFFFFF;fontColor=#000000;" edge="1" parent="1" source="FoT4ogBL0ZoOoOP0HEYb-40" target="FoT4ogBL0ZoOoOP0HEYb-78">
          <mxGeometry relative="1" as="geometry" />
        </mxCell>
        <mxCell id="FoT4ogBL0ZoOoOP0HEYb-40" value="&lt;pre style=&quot;font-family: monaco, monospace; font-size: 9pt;&quot;&gt;&lt;pre style=&quot;font-family: &amp;quot;monaco&amp;quot; , monospace ; font-size: 9pt&quot;&gt;&lt;pre style=&quot;font-family: monaco, monospace; font-size: 9pt;&quot;&gt;&lt;pre style=&quot;font-family: &amp;quot;monaco&amp;quot; , monospace ; font-size: 9pt&quot;&gt;&lt;pre style=&quot;font-family: &amp;quot;monaco&amp;quot; , monospace ; font-size: 9pt&quot;&gt;&lt;pre style=&quot;font-family: &amp;quot;monaco&amp;quot; , monospace ; font-size: 9pt&quot;&gt;&lt;pre style=&quot;font-family: &amp;quot;monaco&amp;quot; , monospace ; font-size: 9pt&quot;&gt;&lt;span style=&quot;font-style: italic;&quot;&gt;ApplicationContextAware&lt;/span&gt;&lt;/pre&gt;&lt;/pre&gt;&lt;/pre&gt;&lt;/pre&gt;&lt;/pre&gt;&lt;/pre&gt;&lt;/pre&gt;" style="rounded=1;whiteSpace=wrap;html=1;absoluteArcSize=1;arcSize=14;strokeWidth=2;labelBackgroundColor=#CCE5FF;fontColor=#99004D;" vertex="1" parent="1">
          <mxGeometry x="43.129999999999995" y="1000" width="193.75" height="40" as="geometry" />
        </mxCell>
        <mxCell id="FoT4ogBL0ZoOoOP0HEYb-42" value="&lt;pre style=&quot;color: rgb(169 , 183 , 198) ; font-family: &amp;quot;monaco&amp;quot; , monospace ; font-size: 9pt&quot;&gt;&lt;pre style=&quot;font-family: &amp;quot;monaco&amp;quot; , monospace ; font-size: 9pt&quot;&gt;&lt;pre style=&quot;font-family: monaco, monospace; font-size: 9pt;&quot;&gt;&lt;pre style=&quot;font-family: &amp;quot;monaco&amp;quot; , monospace ; font-size: 9pt&quot;&gt;&lt;pre style=&quot;font-family: &amp;quot;monaco&amp;quot; , monospace ; font-size: 9pt&quot;&gt;&lt;pre style=&quot;font-family: &amp;quot;monaco&amp;quot; , monospace ; font-size: 9pt&quot;&gt;&lt;pre style=&quot;font-family: &amp;quot;monaco&amp;quot; , monospace ; font-size: 9pt&quot;&gt;&lt;pre style=&quot;font-family: &amp;quot;monaco&amp;quot; , monospace ; font-size: 9pt&quot;&gt;&lt;span style=&quot;color: #629755 ; font-style: italic&quot;&gt;setApplicationContext&lt;/span&gt;&lt;/pre&gt;&lt;/pre&gt;&lt;/pre&gt;&lt;/pre&gt;&lt;/pre&gt;&lt;/pre&gt;&lt;/pre&gt;&lt;/pre&gt;" style="rounded=1;whiteSpace=wrap;html=1;absoluteArcSize=1;arcSize=14;strokeWidth=2;labelBackgroundColor=#FFFFFF;" vertex="1" parent="1">
          <mxGeometry x="316.88" y="1000" width="193.75" height="40" as="geometry" />
        </mxCell>
        <mxCell id="FoT4ogBL0ZoOoOP0HEYb-47" value="" style="edgeStyle=orthogonalEdgeStyle;rounded=0;orthogonalLoop=1;jettySize=auto;html=1;labelBackgroundColor=#FFFFFF;fontColor=#000000;" edge="1" parent="1" source="FoT4ogBL0ZoOoOP0HEYb-44" target="FoT4ogBL0ZoOoOP0HEYb-46">
          <mxGeometry relative="1" as="geometry" />
        </mxCell>
        <mxCell id="FoT4ogBL0ZoOoOP0HEYb-49" value="" style="edgeStyle=orthogonalEdgeStyle;rounded=0;orthogonalLoop=1;jettySize=auto;html=1;labelBackgroundColor=#FFFFFF;fontColor=#000000;" edge="1" parent="1" source="FoT4ogBL0ZoOoOP0HEYb-44" target="FoT4ogBL0ZoOoOP0HEYb-48">
          <mxGeometry relative="1" as="geometry" />
        </mxCell>
        <mxCell id="FoT4ogBL0ZoOoOP0HEYb-81" value="" style="edgeStyle=orthogonalEdgeStyle;rounded=0;orthogonalLoop=1;jettySize=auto;html=1;labelBackgroundColor=#FFFFFF;fontColor=#000000;" edge="1" parent="1" source="FoT4ogBL0ZoOoOP0HEYb-44" target="FoT4ogBL0ZoOoOP0HEYb-80">
          <mxGeometry relative="1" as="geometry" />
        </mxCell>
        <mxCell id="FoT4ogBL0ZoOoOP0HEYb-44" value="&lt;pre style=&quot;font-family: monaco, monospace; font-size: 9pt;&quot;&gt;&lt;pre style=&quot;font-family: &amp;quot;monaco&amp;quot; , monospace ; font-size: 9pt&quot;&gt;&lt;pre style=&quot;font-family: monaco, monospace; font-size: 9pt;&quot;&gt;&lt;pre style=&quot;font-family: &amp;quot;monaco&amp;quot; , monospace ; font-size: 9pt&quot;&gt;&lt;pre style=&quot;font-family: &amp;quot;monaco&amp;quot; , monospace ; font-size: 9pt&quot;&gt;&lt;pre style=&quot;font-family: &amp;quot;monaco&amp;quot; , monospace ; font-size: 9pt&quot;&gt;&lt;pre style=&quot;font-family: &amp;quot;monaco&amp;quot; , monospace ; font-size: 9pt&quot;&gt;&lt;pre style=&quot;font-family: &amp;quot;monaco&amp;quot; , monospace ; font-size: 9pt&quot;&gt;&lt;span style=&quot;font-style: italic;&quot;&gt;ServletContextAware&lt;/span&gt;&lt;/pre&gt;&lt;/pre&gt;&lt;/pre&gt;&lt;/pre&gt;&lt;/pre&gt;&lt;/pre&gt;&lt;/pre&gt;&lt;/pre&gt;" style="rounded=1;whiteSpace=wrap;html=1;absoluteArcSize=1;arcSize=14;strokeWidth=2;labelBackgroundColor=#CCE5FF;fontColor=#99004D;" vertex="1" parent="1">
          <mxGeometry x="43.129999999999995" y="1120" width="193.75" height="40" as="geometry" />
        </mxCell>
        <mxCell id="FoT4ogBL0ZoOoOP0HEYb-46" value="&lt;pre style=&quot;color: rgb(169 , 183 , 198) ; font-family: &amp;quot;monaco&amp;quot; , monospace ; font-size: 9pt&quot;&gt;&lt;pre style=&quot;font-family: &amp;quot;monaco&amp;quot; , monospace ; font-size: 9pt&quot;&gt;&lt;pre style=&quot;font-family: monaco, monospace; font-size: 9pt;&quot;&gt;&lt;pre style=&quot;font-family: &amp;quot;monaco&amp;quot; , monospace ; font-size: 9pt&quot;&gt;&lt;pre style=&quot;font-family: &amp;quot;monaco&amp;quot; , monospace ; font-size: 9pt&quot;&gt;&lt;pre style=&quot;font-family: &amp;quot;monaco&amp;quot; , monospace ; font-size: 9pt&quot;&gt;&lt;pre style=&quot;font-family: &amp;quot;monaco&amp;quot; , monospace ; font-size: 9pt&quot;&gt;&lt;pre style=&quot;font-family: &amp;quot;monaco&amp;quot; , monospace ; font-size: 9pt&quot;&gt;&lt;pre style=&quot;font-family: &amp;quot;monaco&amp;quot; , monospace ; font-size: 9pt&quot;&gt;&lt;span style=&quot;color: #629755 ; font-style: italic&quot;&gt;setServletContext&lt;/span&gt;&lt;/pre&gt;&lt;/pre&gt;&lt;/pre&gt;&lt;/pre&gt;&lt;/pre&gt;&lt;/pre&gt;&lt;/pre&gt;&lt;/pre&gt;&lt;/pre&gt;" style="rounded=1;whiteSpace=wrap;html=1;absoluteArcSize=1;arcSize=14;strokeWidth=2;labelBackgroundColor=#FFFFFF;" vertex="1" parent="1">
          <mxGeometry x="316.88" y="1120" width="193.75" height="40" as="geometry" />
        </mxCell>
        <mxCell id="FoT4ogBL0ZoOoOP0HEYb-51" value="" style="edgeStyle=orthogonalEdgeStyle;rounded=0;orthogonalLoop=1;jettySize=auto;html=1;labelBackgroundColor=#FFFFFF;fontColor=#000000;" edge="1" parent="1" source="FoT4ogBL0ZoOoOP0HEYb-48" target="FoT4ogBL0ZoOoOP0HEYb-50">
          <mxGeometry relative="1" as="geometry" />
        </mxCell>
        <mxCell id="FoT4ogBL0ZoOoOP0HEYb-53" value="" style="edgeStyle=orthogonalEdgeStyle;rounded=0;orthogonalLoop=1;jettySize=auto;html=1;labelBackgroundColor=#FFFFFF;fontColor=#000000;" edge="1" parent="1" source="FoT4ogBL0ZoOoOP0HEYb-48" target="FoT4ogBL0ZoOoOP0HEYb-52">
          <mxGeometry relative="1" as="geometry" />
        </mxCell>
        <mxCell id="FoT4ogBL0ZoOoOP0HEYb-83" value="" style="edgeStyle=orthogonalEdgeStyle;rounded=0;orthogonalLoop=1;jettySize=auto;html=1;labelBackgroundColor=#FFFFFF;fontColor=#000000;" edge="1" parent="1" source="FoT4ogBL0ZoOoOP0HEYb-48" target="FoT4ogBL0ZoOoOP0HEYb-82">
          <mxGeometry relative="1" as="geometry" />
        </mxCell>
        <mxCell id="FoT4ogBL0ZoOoOP0HEYb-48" value="&lt;pre style=&quot;font-family: monaco, monospace; font-size: 9pt;&quot;&gt;&lt;pre style=&quot;font-family: &amp;quot;monaco&amp;quot; , monospace ; font-size: 9pt&quot;&gt;&lt;pre style=&quot;font-family: monaco, monospace; font-size: 9pt;&quot;&gt;&lt;pre style=&quot;font-family: &amp;quot;monaco&amp;quot; , monospace ; font-size: 9pt&quot;&gt;&lt;pre style=&quot;font-family: &amp;quot;monaco&amp;quot; , monospace ; font-size: 9pt&quot;&gt;&lt;pre style=&quot;font-family: &amp;quot;monaco&amp;quot; , monospace ; font-size: 9pt&quot;&gt;&lt;pre style=&quot;font-family: &amp;quot;monaco&amp;quot; , monospace ; font-size: 9pt&quot;&gt;&lt;pre style=&quot;font-family: &amp;quot;monaco&amp;quot; , monospace ; font-size: 9pt&quot;&gt;&lt;pre style=&quot;font-family: &amp;quot;monaco&amp;quot; , monospace ; font-size: 9pt&quot;&gt;&lt;span style=&quot;font-style: italic;&quot;&gt;postProcessBeforeInitialization&lt;/span&gt;&lt;/pre&gt;&lt;/pre&gt;&lt;/pre&gt;&lt;/pre&gt;&lt;/pre&gt;&lt;/pre&gt;&lt;/pre&gt;&lt;/pre&gt;&lt;/pre&gt;" style="rounded=1;whiteSpace=wrap;html=1;absoluteArcSize=1;arcSize=14;strokeWidth=2;labelBackgroundColor=#CCE5FF;fontColor=#99004D;" vertex="1" parent="1">
          <mxGeometry x="1.5700000000000003" y="1240" width="276.87" height="40" as="geometry" />
        </mxCell>
        <mxCell id="FoT4ogBL0ZoOoOP0HEYb-50" value="&lt;pre style=&quot;color: rgb(169 , 183 , 198) ; font-family: &amp;quot;monaco&amp;quot; , monospace ; font-size: 9pt&quot;&gt;&lt;pre style=&quot;font-family: &amp;quot;monaco&amp;quot; , monospace ; font-size: 9pt&quot;&gt;&lt;pre style=&quot;font-family: monaco, monospace; font-size: 9pt;&quot;&gt;&lt;pre style=&quot;font-family: &amp;quot;monaco&amp;quot; , monospace ; font-size: 9pt&quot;&gt;&lt;pre style=&quot;font-family: &amp;quot;monaco&amp;quot; , monospace ; font-size: 9pt&quot;&gt;&lt;pre style=&quot;font-family: &amp;quot;monaco&amp;quot; , monospace ; font-size: 9pt&quot;&gt;&lt;pre style=&quot;font-family: &amp;quot;monaco&amp;quot; , monospace ; font-size: 9pt&quot;&gt;&lt;pre style=&quot;font-family: &amp;quot;monaco&amp;quot; , monospace ; font-size: 9pt&quot;&gt;&lt;pre style=&quot;font-family: &amp;quot;monaco&amp;quot; , monospace ; font-size: 9pt&quot;&gt;&lt;pre style=&quot;font-family: &amp;quot;monaco&amp;quot; , monospace ; font-size: 9pt&quot;&gt;&lt;span style=&quot;color: #629755 ; font-style: italic&quot;&gt;BeanPostProcessors&lt;/span&gt;&lt;/pre&gt;&lt;/pre&gt;&lt;/pre&gt;&lt;/pre&gt;&lt;/pre&gt;&lt;/pre&gt;&lt;/pre&gt;&lt;/pre&gt;&lt;/pre&gt;&lt;/pre&gt;" style="rounded=1;whiteSpace=wrap;html=1;absoluteArcSize=1;arcSize=14;strokeWidth=2;labelBackgroundColor=#FFFFFF;" vertex="1" parent="1">
          <mxGeometry x="358.44" y="1240" width="171.56" height="40" as="geometry" />
        </mxCell>
        <mxCell id="FoT4ogBL0ZoOoOP0HEYb-55" value="" style="edgeStyle=orthogonalEdgeStyle;rounded=0;orthogonalLoop=1;jettySize=auto;html=1;labelBackgroundColor=#FFFFFF;fontColor=#000000;" edge="1" parent="1" source="FoT4ogBL0ZoOoOP0HEYb-52" target="FoT4ogBL0ZoOoOP0HEYb-54">
          <mxGeometry relative="1" as="geometry" />
        </mxCell>
        <mxCell id="FoT4ogBL0ZoOoOP0HEYb-57" value="" style="edgeStyle=orthogonalEdgeStyle;rounded=0;orthogonalLoop=1;jettySize=auto;html=1;labelBackgroundColor=#FFFFFF;fontColor=#000000;" edge="1" parent="1" source="FoT4ogBL0ZoOoOP0HEYb-52" target="FoT4ogBL0ZoOoOP0HEYb-56">
          <mxGeometry relative="1" as="geometry" />
        </mxCell>
        <mxCell id="FoT4ogBL0ZoOoOP0HEYb-52" value="&lt;pre style=&quot;font-family: monaco, monospace; font-size: 9pt;&quot;&gt;&lt;pre style=&quot;font-family: &amp;quot;monaco&amp;quot; , monospace ; font-size: 9pt&quot;&gt;&lt;pre style=&quot;font-family: monaco, monospace; font-size: 9pt;&quot;&gt;&lt;pre style=&quot;font-family: &amp;quot;monaco&amp;quot; , monospace ; font-size: 9pt&quot;&gt;&lt;pre style=&quot;font-family: &amp;quot;monaco&amp;quot; , monospace ; font-size: 9pt&quot;&gt;&lt;pre style=&quot;font-family: &amp;quot;monaco&amp;quot; , monospace ; font-size: 9pt&quot;&gt;&lt;pre style=&quot;font-family: &amp;quot;monaco&amp;quot; , monospace ; font-size: 9pt&quot;&gt;&lt;pre style=&quot;font-family: &amp;quot;monaco&amp;quot; , monospace ; font-size: 9pt&quot;&gt;&lt;pre style=&quot;font-family: &amp;quot;monaco&amp;quot; , monospace ; font-size: 9pt&quot;&gt;&lt;pre style=&quot;font-family: &amp;quot;monaco&amp;quot; , monospace ; font-size: 9pt&quot;&gt;&lt;span style=&quot;font-style: italic;&quot;&gt;InitializingBean&lt;/span&gt;&lt;/pre&gt;&lt;/pre&gt;&lt;/pre&gt;&lt;/pre&gt;&lt;/pre&gt;&lt;/pre&gt;&lt;/pre&gt;&lt;/pre&gt;&lt;/pre&gt;&lt;/pre&gt;" style="rounded=1;whiteSpace=wrap;html=1;absoluteArcSize=1;arcSize=14;strokeWidth=2;labelBackgroundColor=#CCE5FF;fontColor=#99004D;" vertex="1" parent="1">
          <mxGeometry x="40.79" y="1360" width="198.43" height="40" as="geometry" />
        </mxCell>
        <mxCell id="FoT4ogBL0ZoOoOP0HEYb-54" value="&lt;pre style=&quot;color: rgb(169 , 183 , 198) ; font-family: &amp;quot;monaco&amp;quot; , monospace ; font-size: 9pt&quot;&gt;&lt;pre style=&quot;font-family: &amp;quot;monaco&amp;quot; , monospace ; font-size: 9pt&quot;&gt;&lt;pre style=&quot;font-family: monaco, monospace; font-size: 9pt;&quot;&gt;&lt;pre style=&quot;font-family: &amp;quot;monaco&amp;quot; , monospace ; font-size: 9pt&quot;&gt;&lt;pre style=&quot;font-family: &amp;quot;monaco&amp;quot; , monospace ; font-size: 9pt&quot;&gt;&lt;pre style=&quot;font-family: &amp;quot;monaco&amp;quot; , monospace ; font-size: 9pt&quot;&gt;&lt;pre style=&quot;font-family: &amp;quot;monaco&amp;quot; , monospace ; font-size: 9pt&quot;&gt;&lt;pre style=&quot;font-family: &amp;quot;monaco&amp;quot; , monospace ; font-size: 9pt&quot;&gt;&lt;pre style=&quot;font-family: &amp;quot;monaco&amp;quot; , monospace ; font-size: 9pt&quot;&gt;&lt;pre style=&quot;font-family: &amp;quot;monaco&amp;quot; , monospace ; font-size: 9pt&quot;&gt;&lt;pre style=&quot;font-family: &amp;quot;monaco&amp;quot; , monospace ; font-size: 9pt&quot;&gt;&lt;span style=&quot;color: #629755 ; font-style: italic&quot;&gt;afterPropertiesSet&lt;/span&gt;&lt;/pre&gt;&lt;/pre&gt;&lt;/pre&gt;&lt;/pre&gt;&lt;/pre&gt;&lt;/pre&gt;&lt;/pre&gt;&lt;/pre&gt;&lt;/pre&gt;&lt;/pre&gt;&lt;/pre&gt;" style="rounded=1;whiteSpace=wrap;html=1;absoluteArcSize=1;arcSize=14;strokeWidth=2;labelBackgroundColor=#FFFFFF;" vertex="1" parent="1">
          <mxGeometry x="319.22" y="1360" width="198.43" height="40" as="geometry" />
        </mxCell>
        <mxCell id="FoT4ogBL0ZoOoOP0HEYb-59" value="" style="edgeStyle=orthogonalEdgeStyle;rounded=0;orthogonalLoop=1;jettySize=auto;html=1;labelBackgroundColor=#FFFFFF;fontColor=#000000;" edge="1" parent="1" source="FoT4ogBL0ZoOoOP0HEYb-56" target="FoT4ogBL0ZoOoOP0HEYb-58">
          <mxGeometry relative="1" as="geometry" />
        </mxCell>
        <mxCell id="FoT4ogBL0ZoOoOP0HEYb-87" value="" style="edgeStyle=orthogonalEdgeStyle;rounded=0;orthogonalLoop=1;jettySize=auto;html=1;labelBackgroundColor=#FFFFFF;fontColor=#000000;" edge="1" parent="1" source="FoT4ogBL0ZoOoOP0HEYb-56" target="FoT4ogBL0ZoOoOP0HEYb-86">
          <mxGeometry relative="1" as="geometry" />
        </mxCell>
        <mxCell id="FoT4ogBL0ZoOoOP0HEYb-56" value="&lt;pre style=&quot;font-family: monaco, monospace; font-size: 9pt;&quot;&gt;&lt;pre style=&quot;font-family: &amp;quot;monaco&amp;quot; , monospace ; font-size: 9pt&quot;&gt;&lt;pre style=&quot;font-family: monaco, monospace; font-size: 9pt;&quot;&gt;&lt;pre style=&quot;font-family: &amp;quot;monaco&amp;quot; , monospace ; font-size: 9pt&quot;&gt;&lt;pre style=&quot;font-family: &amp;quot;monaco&amp;quot; , monospace ; font-size: 9pt&quot;&gt;&lt;pre style=&quot;font-family: &amp;quot;monaco&amp;quot; , monospace ; font-size: 9pt&quot;&gt;&lt;pre style=&quot;font-family: &amp;quot;monaco&amp;quot; , monospace ; font-size: 9pt&quot;&gt;&lt;pre style=&quot;font-family: &amp;quot;monaco&amp;quot; , monospace ; font-size: 9pt&quot;&gt;&lt;pre style=&quot;font-family: &amp;quot;monaco&amp;quot; , monospace ; font-size: 9pt&quot;&gt;&lt;pre style=&quot;font-family: &amp;quot;monaco&amp;quot; , monospace ; font-size: 9pt&quot;&gt;&lt;pre style=&quot;font-family: &amp;quot;monaco&amp;quot; , monospace ; font-size: 9pt&quot;&gt;&lt;span style=&quot;font-style: italic;&quot;&gt;init-method&lt;/span&gt;&lt;/pre&gt;&lt;/pre&gt;&lt;/pre&gt;&lt;/pre&gt;&lt;/pre&gt;&lt;/pre&gt;&lt;/pre&gt;&lt;/pre&gt;&lt;/pre&gt;&lt;/pre&gt;&lt;/pre&gt;" style="rounded=1;whiteSpace=wrap;html=1;absoluteArcSize=1;arcSize=14;strokeWidth=2;labelBackgroundColor=#CCE5FF;fontColor=#99004D;" vertex="1" parent="1">
          <mxGeometry x="65.4" y="1480" width="149.21" height="40" as="geometry" />
        </mxCell>
        <mxCell id="FoT4ogBL0ZoOoOP0HEYb-61" value="" style="edgeStyle=orthogonalEdgeStyle;rounded=0;orthogonalLoop=1;jettySize=auto;html=1;labelBackgroundColor=#FFFFFF;fontColor=#000000;" edge="1" parent="1" source="FoT4ogBL0ZoOoOP0HEYb-58" target="FoT4ogBL0ZoOoOP0HEYb-60">
          <mxGeometry relative="1" as="geometry" />
        </mxCell>
        <mxCell id="FoT4ogBL0ZoOoOP0HEYb-63" value="" style="edgeStyle=orthogonalEdgeStyle;rounded=0;orthogonalLoop=1;jettySize=auto;html=1;labelBackgroundColor=#FFFFFF;fontColor=#000000;" edge="1" parent="1" source="FoT4ogBL0ZoOoOP0HEYb-58" target="FoT4ogBL0ZoOoOP0HEYb-62">
          <mxGeometry relative="1" as="geometry" />
        </mxCell>
        <mxCell id="FoT4ogBL0ZoOoOP0HEYb-89" value="" style="edgeStyle=orthogonalEdgeStyle;rounded=0;orthogonalLoop=1;jettySize=auto;html=1;labelBackgroundColor=#FFFFFF;fontColor=#000000;" edge="1" parent="1" source="FoT4ogBL0ZoOoOP0HEYb-58" target="FoT4ogBL0ZoOoOP0HEYb-88">
          <mxGeometry relative="1" as="geometry" />
        </mxCell>
        <mxCell id="FoT4ogBL0ZoOoOP0HEYb-58" value="&lt;pre style=&quot;font-family: monaco, monospace; font-size: 9pt;&quot;&gt;&lt;pre style=&quot;font-family: &amp;quot;monaco&amp;quot; , monospace ; font-size: 9pt&quot;&gt;&lt;pre style=&quot;font-family: monaco, monospace; font-size: 9pt;&quot;&gt;&lt;pre style=&quot;font-family: &amp;quot;monaco&amp;quot; , monospace ; font-size: 9pt&quot;&gt;&lt;pre style=&quot;font-family: &amp;quot;monaco&amp;quot; , monospace ; font-size: 9pt&quot;&gt;&lt;pre style=&quot;font-family: &amp;quot;monaco&amp;quot; , monospace ; font-size: 9pt&quot;&gt;&lt;pre style=&quot;font-family: &amp;quot;monaco&amp;quot; , monospace ; font-size: 9pt&quot;&gt;&lt;pre style=&quot;font-family: &amp;quot;monaco&amp;quot; , monospace ; font-size: 9pt&quot;&gt;&lt;pre style=&quot;font-family: &amp;quot;monaco&amp;quot; , monospace ; font-size: 9pt&quot;&gt;&lt;pre style=&quot;font-family: &amp;quot;monaco&amp;quot; , monospace ; font-size: 9pt&quot;&gt;&lt;pre style=&quot;font-family: &amp;quot;monaco&amp;quot; , monospace ; font-size: 9pt&quot;&gt;&lt;pre style=&quot;font-family: &amp;quot;monaco&amp;quot; , monospace ; font-size: 9pt&quot;&gt;&lt;span style=&quot;font-style: italic;&quot;&gt;postProcessAfterInitialization&lt;/span&gt;&lt;/pre&gt;&lt;/pre&gt;&lt;/pre&gt;&lt;/pre&gt;&lt;/pre&gt;&lt;/pre&gt;&lt;/pre&gt;&lt;/pre&gt;&lt;/pre&gt;&lt;/pre&gt;&lt;/pre&gt;&lt;/pre&gt;" style="rounded=1;whiteSpace=wrap;html=1;absoluteArcSize=1;arcSize=14;strokeWidth=2;labelBackgroundColor=#CCE5FF;fontColor=#99004D;" vertex="1" parent="1">
          <mxGeometry x="17.700000000000003" y="1600" width="244.6" height="50" as="geometry" />
        </mxCell>
        <mxCell id="FoT4ogBL0ZoOoOP0HEYb-60" value="&lt;pre style=&quot;color: rgb(169 , 183 , 198) ; font-family: &amp;quot;monaco&amp;quot; , monospace ; font-size: 9pt&quot;&gt;&lt;pre style=&quot;font-family: &amp;quot;monaco&amp;quot; , monospace ; font-size: 9pt&quot;&gt;&lt;pre style=&quot;font-family: monaco, monospace; font-size: 9pt;&quot;&gt;&lt;pre style=&quot;font-family: &amp;quot;monaco&amp;quot; , monospace ; font-size: 9pt&quot;&gt;&lt;pre style=&quot;font-family: &amp;quot;monaco&amp;quot; , monospace ; font-size: 9pt&quot;&gt;&lt;pre style=&quot;font-family: &amp;quot;monaco&amp;quot; , monospace ; font-size: 9pt&quot;&gt;&lt;pre style=&quot;font-family: &amp;quot;monaco&amp;quot; , monospace ; font-size: 9pt&quot;&gt;&lt;pre style=&quot;font-family: &amp;quot;monaco&amp;quot; , monospace ; font-size: 9pt&quot;&gt;&lt;pre style=&quot;font-family: &amp;quot;monaco&amp;quot; , monospace ; font-size: 9pt&quot;&gt;&lt;pre style=&quot;font-family: &amp;quot;monaco&amp;quot; , monospace ; font-size: 9pt&quot;&gt;&lt;pre style=&quot;font-family: &amp;quot;monaco&amp;quot; , monospace ; font-size: 9pt&quot;&gt;&lt;pre style=&quot;font-family: &amp;quot;monaco&amp;quot; , monospace ; font-size: 9pt&quot;&gt;&lt;pre style=&quot;font-family: &amp;quot;monaco&amp;quot; , monospace ; font-size: 9pt&quot;&gt;&lt;span style=&quot;color: #629755 ; font-style: italic&quot;&gt;BeanPostProcessors&lt;/span&gt;&lt;/pre&gt;&lt;/pre&gt;&lt;/pre&gt;&lt;/pre&gt;&lt;/pre&gt;&lt;/pre&gt;&lt;/pre&gt;&lt;/pre&gt;&lt;/pre&gt;&lt;/pre&gt;&lt;/pre&gt;&lt;/pre&gt;&lt;/pre&gt;" style="rounded=1;whiteSpace=wrap;html=1;absoluteArcSize=1;arcSize=14;strokeWidth=2;labelBackgroundColor=#FFFFFF;" vertex="1" parent="1">
          <mxGeometry x="342.3" y="1600" width="157.7" height="50" as="geometry" />
        </mxCell>
        <mxCell id="FoT4ogBL0ZoOoOP0HEYb-65" value="" style="edgeStyle=orthogonalEdgeStyle;rounded=0;orthogonalLoop=1;jettySize=auto;html=1;labelBackgroundColor=#FFFFFF;fontColor=#000000;" edge="1" parent="1" source="FoT4ogBL0ZoOoOP0HEYb-62" target="FoT4ogBL0ZoOoOP0HEYb-64">
          <mxGeometry relative="1" as="geometry" />
        </mxCell>
        <mxCell id="FoT4ogBL0ZoOoOP0HEYb-67" value="" style="edgeStyle=orthogonalEdgeStyle;rounded=0;orthogonalLoop=1;jettySize=auto;html=1;labelBackgroundColor=#FFFFFF;fontColor=#000000;" edge="1" parent="1" source="FoT4ogBL0ZoOoOP0HEYb-62" target="FoT4ogBL0ZoOoOP0HEYb-66">
          <mxGeometry relative="1" as="geometry" />
        </mxCell>
        <mxCell id="FoT4ogBL0ZoOoOP0HEYb-62" value="&lt;pre style=&quot;font-family: monaco, monospace; font-size: 9pt;&quot;&gt;&lt;pre style=&quot;font-family: &amp;quot;monaco&amp;quot; , monospace ; font-size: 9pt&quot;&gt;&lt;pre style=&quot;font-family: monaco, monospace; font-size: 9pt;&quot;&gt;&lt;pre style=&quot;font-family: &amp;quot;monaco&amp;quot; , monospace ; font-size: 9pt&quot;&gt;&lt;pre style=&quot;font-family: &amp;quot;monaco&amp;quot; , monospace ; font-size: 9pt&quot;&gt;&lt;pre style=&quot;font-family: &amp;quot;monaco&amp;quot; , monospace ; font-size: 9pt&quot;&gt;&lt;pre style=&quot;font-family: &amp;quot;monaco&amp;quot; , monospace ; font-size: 9pt&quot;&gt;&lt;pre style=&quot;font-family: &amp;quot;monaco&amp;quot; , monospace ; font-size: 9pt&quot;&gt;&lt;pre style=&quot;font-family: &amp;quot;monaco&amp;quot; , monospace ; font-size: 9pt&quot;&gt;&lt;pre style=&quot;font-family: &amp;quot;monaco&amp;quot; , monospace ; font-size: 9pt&quot;&gt;&lt;pre style=&quot;font-family: &amp;quot;monaco&amp;quot; , monospace ; font-size: 9pt&quot;&gt;&lt;pre style=&quot;font-family: &amp;quot;monaco&amp;quot; , monospace ; font-size: 9pt&quot;&gt;&lt;pre style=&quot;font-family: &amp;quot;monaco&amp;quot; , monospace ; font-size: 9pt&quot;&gt;&lt;span style=&quot;font-style: italic;&quot;&gt;postProcessBeforeDestruction&lt;/span&gt;&lt;/pre&gt;&lt;/pre&gt;&lt;/pre&gt;&lt;/pre&gt;&lt;/pre&gt;&lt;/pre&gt;&lt;/pre&gt;&lt;/pre&gt;&lt;/pre&gt;&lt;/pre&gt;&lt;/pre&gt;&lt;/pre&gt;&lt;/pre&gt;" style="rounded=1;whiteSpace=wrap;html=1;absoluteArcSize=1;arcSize=14;strokeWidth=2;labelBackgroundColor=#CCE5FF;fontColor=#99004D;" vertex="1" parent="1">
          <mxGeometry x="17.700000000000003" y="1730" width="244.6" height="50" as="geometry" />
        </mxCell>
        <mxCell id="FoT4ogBL0ZoOoOP0HEYb-64" value="&lt;pre style=&quot;color: rgb(169 , 183 , 198) ; font-family: &amp;quot;monaco&amp;quot; , monospace ; font-size: 9pt&quot;&gt;&lt;pre style=&quot;font-family: &amp;quot;monaco&amp;quot; , monospace ; font-size: 9pt&quot;&gt;&lt;pre style=&quot;font-family: monaco, monospace; font-size: 9pt;&quot;&gt;&lt;pre style=&quot;font-family: &amp;quot;monaco&amp;quot; , monospace ; font-size: 9pt&quot;&gt;&lt;pre style=&quot;font-family: &amp;quot;monaco&amp;quot; , monospace ; font-size: 9pt&quot;&gt;&lt;pre style=&quot;font-family: &amp;quot;monaco&amp;quot; , monospace ; font-size: 9pt&quot;&gt;&lt;pre style=&quot;font-family: &amp;quot;monaco&amp;quot; , monospace ; font-size: 9pt&quot;&gt;&lt;pre style=&quot;font-family: &amp;quot;monaco&amp;quot; , monospace ; font-size: 9pt&quot;&gt;&lt;pre style=&quot;font-family: &amp;quot;monaco&amp;quot; , monospace ; font-size: 9pt&quot;&gt;&lt;pre style=&quot;font-family: &amp;quot;monaco&amp;quot; , monospace ; font-size: 9pt&quot;&gt;&lt;pre style=&quot;font-family: &amp;quot;monaco&amp;quot; , monospace ; font-size: 9pt&quot;&gt;&lt;pre style=&quot;font-family: &amp;quot;monaco&amp;quot; , monospace ; font-size: 9pt&quot;&gt;&lt;pre style=&quot;font-family: &amp;quot;monaco&amp;quot; , monospace ; font-size: 9pt&quot;&gt;&lt;pre style=&quot;font-family: &amp;quot;monaco&amp;quot; , monospace ; font-size: 9pt&quot;&gt;&lt;span style=&quot;color: #629755 ; font-style: italic&quot;&gt;DestructionAwareBeanPostProcessors&lt;/span&gt;&lt;/pre&gt;&lt;/pre&gt;&lt;/pre&gt;&lt;/pre&gt;&lt;/pre&gt;&lt;/pre&gt;&lt;/pre&gt;&lt;/pre&gt;&lt;/pre&gt;&lt;/pre&gt;&lt;/pre&gt;&lt;/pre&gt;&lt;/pre&gt;&lt;/pre&gt;" style="rounded=1;whiteSpace=wrap;html=1;absoluteArcSize=1;arcSize=14;strokeWidth=2;labelBackgroundColor=#FFFFFF;" vertex="1" parent="1">
          <mxGeometry x="342.3" y="1730" width="297.7" height="50" as="geometry" />
        </mxCell>
        <mxCell id="FoT4ogBL0ZoOoOP0HEYb-69" value="" style="edgeStyle=orthogonalEdgeStyle;rounded=0;orthogonalLoop=1;jettySize=auto;html=1;labelBackgroundColor=#FFFFFF;fontColor=#000000;" edge="1" parent="1" source="FoT4ogBL0ZoOoOP0HEYb-66" target="FoT4ogBL0ZoOoOP0HEYb-68">
          <mxGeometry relative="1" as="geometry" />
        </mxCell>
        <mxCell id="FoT4ogBL0ZoOoOP0HEYb-71" value="" style="edgeStyle=orthogonalEdgeStyle;rounded=0;orthogonalLoop=1;jettySize=auto;html=1;labelBackgroundColor=#FFFFFF;fontColor=#000000;" edge="1" parent="1" source="FoT4ogBL0ZoOoOP0HEYb-66" target="FoT4ogBL0ZoOoOP0HEYb-70">
          <mxGeometry relative="1" as="geometry" />
        </mxCell>
        <mxCell id="FoT4ogBL0ZoOoOP0HEYb-66" value="&lt;pre style=&quot;font-family: monaco, monospace; font-size: 9pt;&quot;&gt;&lt;pre style=&quot;font-family: &amp;quot;monaco&amp;quot; , monospace ; font-size: 9pt&quot;&gt;&lt;pre style=&quot;font-family: monaco, monospace; font-size: 9pt;&quot;&gt;&lt;pre style=&quot;font-family: &amp;quot;monaco&amp;quot; , monospace ; font-size: 9pt&quot;&gt;&lt;pre style=&quot;font-family: &amp;quot;monaco&amp;quot; , monospace ; font-size: 9pt&quot;&gt;&lt;pre style=&quot;font-family: &amp;quot;monaco&amp;quot; , monospace ; font-size: 9pt&quot;&gt;&lt;pre style=&quot;font-family: &amp;quot;monaco&amp;quot; , monospace ; font-size: 9pt&quot;&gt;&lt;pre style=&quot;font-family: &amp;quot;monaco&amp;quot; , monospace ; font-size: 9pt&quot;&gt;&lt;pre style=&quot;font-family: &amp;quot;monaco&amp;quot; , monospace ; font-size: 9pt&quot;&gt;&lt;pre style=&quot;font-family: &amp;quot;monaco&amp;quot; , monospace ; font-size: 9pt&quot;&gt;&lt;pre style=&quot;font-family: &amp;quot;monaco&amp;quot; , monospace ; font-size: 9pt&quot;&gt;&lt;pre style=&quot;font-family: &amp;quot;monaco&amp;quot; , monospace ; font-size: 9pt&quot;&gt;&lt;pre style=&quot;font-family: &amp;quot;monaco&amp;quot; , monospace ; font-size: 9pt&quot;&gt;&lt;pre style=&quot;font-family: &amp;quot;monaco&amp;quot; , monospace ; font-size: 9pt&quot;&gt;&lt;span style=&quot;font-style: italic;&quot;&gt;DisposableBean&lt;/span&gt;&lt;/pre&gt;&lt;/pre&gt;&lt;/pre&gt;&lt;/pre&gt;&lt;/pre&gt;&lt;/pre&gt;&lt;/pre&gt;&lt;/pre&gt;&lt;/pre&gt;&lt;/pre&gt;&lt;/pre&gt;&lt;/pre&gt;&lt;/pre&gt;&lt;/pre&gt;" style="rounded=1;whiteSpace=wrap;html=1;absoluteArcSize=1;arcSize=14;strokeWidth=2;labelBackgroundColor=#CCE5FF;fontColor=#99004D;" vertex="1" parent="1">
          <mxGeometry x="68.85" y="1860" width="142.3" height="50" as="geometry" />
        </mxCell>
        <mxCell id="FoT4ogBL0ZoOoOP0HEYb-68" value="&lt;pre style=&quot;color: rgb(169 , 183 , 198) ; font-family: &amp;quot;monaco&amp;quot; , monospace ; font-size: 9pt&quot;&gt;&lt;pre style=&quot;font-family: &amp;quot;monaco&amp;quot; , monospace ; font-size: 9pt&quot;&gt;&lt;pre style=&quot;font-family: monaco, monospace; font-size: 9pt;&quot;&gt;&lt;pre style=&quot;font-family: &amp;quot;monaco&amp;quot; , monospace ; font-size: 9pt&quot;&gt;&lt;pre style=&quot;font-family: &amp;quot;monaco&amp;quot; , monospace ; font-size: 9pt&quot;&gt;&lt;pre style=&quot;font-family: &amp;quot;monaco&amp;quot; , monospace ; font-size: 9pt&quot;&gt;&lt;pre style=&quot;font-family: &amp;quot;monaco&amp;quot; , monospace ; font-size: 9pt&quot;&gt;&lt;pre style=&quot;font-family: &amp;quot;monaco&amp;quot; , monospace ; font-size: 9pt&quot;&gt;&lt;pre style=&quot;font-family: &amp;quot;monaco&amp;quot; , monospace ; font-size: 9pt&quot;&gt;&lt;pre style=&quot;font-family: &amp;quot;monaco&amp;quot; , monospace ; font-size: 9pt&quot;&gt;&lt;pre style=&quot;font-family: &amp;quot;monaco&amp;quot; , monospace ; font-size: 9pt&quot;&gt;&lt;pre style=&quot;font-family: &amp;quot;monaco&amp;quot; , monospace ; font-size: 9pt&quot;&gt;&lt;pre style=&quot;font-family: &amp;quot;monaco&amp;quot; , monospace ; font-size: 9pt&quot;&gt;&lt;pre style=&quot;font-family: &amp;quot;monaco&amp;quot; , monospace ; font-size: 9pt&quot;&gt;&lt;pre style=&quot;font-family: &amp;quot;monaco&amp;quot; , monospace ; font-size: 9pt&quot;&gt;&lt;span style=&quot;color: #629755 ; font-style: italic&quot;&gt;destroy&lt;/span&gt;&lt;/pre&gt;&lt;/pre&gt;&lt;/pre&gt;&lt;/pre&gt;&lt;/pre&gt;&lt;/pre&gt;&lt;/pre&gt;&lt;/pre&gt;&lt;/pre&gt;&lt;/pre&gt;&lt;/pre&gt;&lt;/pre&gt;&lt;/pre&gt;&lt;/pre&gt;&lt;/pre&gt;" style="rounded=1;whiteSpace=wrap;html=1;absoluteArcSize=1;arcSize=14;strokeWidth=2;labelBackgroundColor=#FFFFFF;" vertex="1" parent="1">
          <mxGeometry x="291.15" y="1860" width="142.3" height="50" as="geometry" />
        </mxCell>
        <mxCell id="FoT4ogBL0ZoOoOP0HEYb-91" value="" style="edgeStyle=orthogonalEdgeStyle;rounded=0;orthogonalLoop=1;jettySize=auto;html=1;labelBackgroundColor=#FFFFFF;fontColor=#000000;" edge="1" parent="1" source="FoT4ogBL0ZoOoOP0HEYb-70" target="FoT4ogBL0ZoOoOP0HEYb-90">
          <mxGeometry relative="1" as="geometry" />
        </mxCell>
        <mxCell id="FoT4ogBL0ZoOoOP0HEYb-70" value="&lt;pre style=&quot;font-family: monaco, monospace; font-size: 9pt;&quot;&gt;&lt;pre style=&quot;font-family: &amp;quot;monaco&amp;quot; , monospace ; font-size: 9pt&quot;&gt;&lt;pre style=&quot;font-family: monaco, monospace; font-size: 9pt;&quot;&gt;&lt;pre style=&quot;font-family: &amp;quot;monaco&amp;quot; , monospace ; font-size: 9pt&quot;&gt;&lt;pre style=&quot;font-family: &amp;quot;monaco&amp;quot; , monospace ; font-size: 9pt&quot;&gt;&lt;pre style=&quot;font-family: &amp;quot;monaco&amp;quot; , monospace ; font-size: 9pt&quot;&gt;&lt;pre style=&quot;font-family: &amp;quot;monaco&amp;quot; , monospace ; font-size: 9pt&quot;&gt;&lt;pre style=&quot;font-family: &amp;quot;monaco&amp;quot; , monospace ; font-size: 9pt&quot;&gt;&lt;pre style=&quot;font-family: &amp;quot;monaco&amp;quot; , monospace ; font-size: 9pt&quot;&gt;&lt;pre style=&quot;font-family: &amp;quot;monaco&amp;quot; , monospace ; font-size: 9pt&quot;&gt;&lt;pre style=&quot;font-family: &amp;quot;monaco&amp;quot; , monospace ; font-size: 9pt&quot;&gt;&lt;pre style=&quot;font-family: &amp;quot;monaco&amp;quot; , monospace ; font-size: 9pt&quot;&gt;&lt;pre style=&quot;font-family: &amp;quot;monaco&amp;quot; , monospace ; font-size: 9pt&quot;&gt;&lt;pre style=&quot;font-family: &amp;quot;monaco&amp;quot; , monospace ; font-size: 9pt&quot;&gt;&lt;pre style=&quot;font-family: &amp;quot;monaco&amp;quot; , monospace ; font-size: 9pt&quot;&gt;&lt;span style=&quot;font-style: italic;&quot;&gt;destroy-method&lt;/span&gt;&lt;/pre&gt;&lt;/pre&gt;&lt;/pre&gt;&lt;/pre&gt;&lt;/pre&gt;&lt;/pre&gt;&lt;/pre&gt;&lt;/pre&gt;&lt;/pre&gt;&lt;/pre&gt;&lt;/pre&gt;&lt;/pre&gt;&lt;/pre&gt;&lt;/pre&gt;&lt;/pre&gt;" style="rounded=1;whiteSpace=wrap;html=1;absoluteArcSize=1;arcSize=14;strokeWidth=2;labelBackgroundColor=#CCE5FF;fontColor=#99004D;" vertex="1" parent="1">
          <mxGeometry x="68.85" y="1990" width="142.3" height="50" as="geometry" />
        </mxCell>
        <mxCell id="FoT4ogBL0ZoOoOP0HEYb-72" value="&lt;pre style=&quot;color: rgb(169 , 183 , 198) ; font-family: &amp;quot;monaco&amp;quot; , monospace ; font-size: 9pt&quot;&gt;&lt;pre style=&quot;font-family: &amp;quot;monaco&amp;quot; , monospace ; font-size: 9pt&quot;&gt;&lt;pre style=&quot;font-family: &amp;quot;monaco&amp;quot; , monospace ; font-size: 9pt&quot;&gt;&lt;pre style=&quot;font-family: &amp;quot;monaco&amp;quot; , monospace ; font-size: 9pt&quot;&gt;&lt;pre style=&quot;font-family: monaco, monospace; font-size: 9pt;&quot;&gt;&lt;span style=&quot;color: #629755 ; font-style: italic&quot;&gt;org.springframework.context.ResourceLoaderAware&lt;/span&gt;&lt;/pre&gt;&lt;/pre&gt;&lt;/pre&gt;&lt;/pre&gt;&lt;/pre&gt;" style="rounded=1;whiteSpace=wrap;html=1;absoluteArcSize=1;arcSize=14;strokeWidth=2;labelBackgroundColor=#FFFFFF;" vertex="1" parent="1">
          <mxGeometry x="-400" y="640" width="372.5" height="40" as="geometry" />
        </mxCell>
        <mxCell id="FoT4ogBL0ZoOoOP0HEYb-74" value="&lt;pre style=&quot;color: rgb(169 , 183 , 198) ; font-family: &amp;quot;monaco&amp;quot; , monospace ; font-size: 9pt&quot;&gt;&lt;pre style=&quot;font-family: &amp;quot;monaco&amp;quot; , monospace ; font-size: 9pt&quot;&gt;&lt;pre style=&quot;font-family: &amp;quot;monaco&amp;quot; , monospace ; font-size: 9pt&quot;&gt;&lt;pre style=&quot;font-family: &amp;quot;monaco&amp;quot; , monospace ; font-size: 9pt&quot;&gt;&lt;pre style=&quot;font-family: &amp;quot;monaco&amp;quot; , monospace ; font-size: 9pt&quot;&gt;&lt;pre style=&quot;font-family: monaco, monospace; font-size: 9pt;&quot;&gt;&lt;span style=&quot;color: #629755 ; font-style: italic&quot;&gt;org.springframework.context.ApplicationEventPublisherAware&lt;/span&gt;&lt;/pre&gt;&lt;/pre&gt;&lt;/pre&gt;&lt;/pre&gt;&lt;/pre&gt;&lt;/pre&gt;" style="rounded=1;whiteSpace=wrap;html=1;absoluteArcSize=1;arcSize=14;strokeWidth=2;labelBackgroundColor=#FFFFFF;" vertex="1" parent="1">
          <mxGeometry x="-530" y="760" width="466.25" height="40" as="geometry" />
        </mxCell>
        <mxCell id="FoT4ogBL0ZoOoOP0HEYb-76" value="&lt;pre style=&quot;color: rgb(169 , 183 , 198) ; font-family: &amp;quot;monaco&amp;quot; , monospace ; font-size: 9pt&quot;&gt;&lt;pre style=&quot;font-family: &amp;quot;monaco&amp;quot; , monospace ; font-size: 9pt&quot;&gt;&lt;pre style=&quot;font-family: &amp;quot;monaco&amp;quot; , monospace ; font-size: 9pt&quot;&gt;&lt;pre style=&quot;font-family: &amp;quot;monaco&amp;quot; , monospace ; font-size: 9pt&quot;&gt;&lt;pre style=&quot;font-family: &amp;quot;monaco&amp;quot; , monospace ; font-size: 9pt&quot;&gt;&lt;pre style=&quot;font-family: &amp;quot;monaco&amp;quot; , monospace ; font-size: 9pt&quot;&gt;&lt;pre style=&quot;font-family: monaco, monospace; font-size: 9pt;&quot;&gt;&lt;span style=&quot;color: #629755 ; font-style: italic&quot;&gt;org.springframework.context.MessageSourceAware&lt;/span&gt;&lt;/pre&gt;&lt;/pre&gt;&lt;/pre&gt;&lt;/pre&gt;&lt;/pre&gt;&lt;/pre&gt;&lt;/pre&gt;" style="rounded=1;whiteSpace=wrap;html=1;absoluteArcSize=1;arcSize=14;strokeWidth=2;labelBackgroundColor=#FFFFFF;" vertex="1" parent="1">
          <mxGeometry x="-440" y="880" width="403.13" height="40" as="geometry" />
        </mxCell>
        <mxCell id="FoT4ogBL0ZoOoOP0HEYb-78" value="&lt;pre style=&quot;color: rgb(169 , 183 , 198) ; font-family: &amp;quot;monaco&amp;quot; , monospace ; font-size: 9pt&quot;&gt;&lt;pre style=&quot;font-family: &amp;quot;monaco&amp;quot; , monospace ; font-size: 9pt&quot;&gt;&lt;pre style=&quot;font-family: &amp;quot;monaco&amp;quot; , monospace ; font-size: 9pt&quot;&gt;&lt;pre style=&quot;font-family: &amp;quot;monaco&amp;quot; , monospace ; font-size: 9pt&quot;&gt;&lt;pre style=&quot;font-family: &amp;quot;monaco&amp;quot; , monospace ; font-size: 9pt&quot;&gt;&lt;pre style=&quot;font-family: &amp;quot;monaco&amp;quot; , monospace ; font-size: 9pt&quot;&gt;&lt;pre style=&quot;font-family: &amp;quot;monaco&amp;quot; , monospace ; font-size: 9pt&quot;&gt;&lt;pre style=&quot;font-family: monaco, monospace; font-size: 9pt;&quot;&gt;&lt;span style=&quot;color: #629755 ; font-style: italic&quot;&gt;org.springframework.context.ApplicationContextAware&lt;/span&gt;&lt;/pre&gt;&lt;/pre&gt;&lt;/pre&gt;&lt;/pre&gt;&lt;/pre&gt;&lt;/pre&gt;&lt;/pre&gt;&lt;/pre&gt;" style="rounded=1;whiteSpace=wrap;html=1;absoluteArcSize=1;arcSize=14;strokeWidth=2;labelBackgroundColor=#FFFFFF;" vertex="1" parent="1">
          <mxGeometry x="-440" y="1000" width="403.13" height="40" as="geometry" />
        </mxCell>
        <mxCell id="FoT4ogBL0ZoOoOP0HEYb-80" value="&lt;pre style=&quot;color: rgb(169 , 183 , 198) ; font-family: &amp;quot;monaco&amp;quot; , monospace ; font-size: 9pt&quot;&gt;&lt;pre style=&quot;font-family: &amp;quot;monaco&amp;quot; , monospace ; font-size: 9pt&quot;&gt;&lt;pre style=&quot;font-family: &amp;quot;monaco&amp;quot; , monospace ; font-size: 9pt&quot;&gt;&lt;pre style=&quot;font-family: &amp;quot;monaco&amp;quot; , monospace ; font-size: 9pt&quot;&gt;&lt;pre style=&quot;font-family: &amp;quot;monaco&amp;quot; , monospace ; font-size: 9pt&quot;&gt;&lt;pre style=&quot;font-family: &amp;quot;monaco&amp;quot; , monospace ; font-size: 9pt&quot;&gt;&lt;pre style=&quot;font-family: &amp;quot;monaco&amp;quot; , monospace ; font-size: 9pt&quot;&gt;&lt;pre style=&quot;font-family: &amp;quot;monaco&amp;quot; , monospace ; font-size: 9pt&quot;&gt;&lt;pre style=&quot;font-family: monaco, monospace; font-size: 9pt;&quot;&gt;&lt;span style=&quot;color: #629755 ; font-style: italic&quot;&gt;org.springframework.web.context.ServletContextAware&lt;/span&gt;&lt;/pre&gt;&lt;/pre&gt;&lt;/pre&gt;&lt;/pre&gt;&lt;/pre&gt;&lt;/pre&gt;&lt;/pre&gt;&lt;/pre&gt;&lt;/pre&gt;" style="rounded=1;whiteSpace=wrap;html=1;absoluteArcSize=1;arcSize=14;strokeWidth=2;labelBackgroundColor=#FFFFFF;" vertex="1" parent="1">
          <mxGeometry x="-450" y="1120" width="413.13" height="40" as="geometry" />
        </mxCell>
        <mxCell id="FoT4ogBL0ZoOoOP0HEYb-82" value="&lt;pre style=&quot;color: rgb(169 , 183 , 198) ; font-family: &amp;quot;monaco&amp;quot; , monospace ; font-size: 9pt&quot;&gt;&lt;pre style=&quot;font-family: &amp;quot;monaco&amp;quot; , monospace ; font-size: 9pt&quot;&gt;&lt;pre style=&quot;font-family: &amp;quot;monaco&amp;quot; , monospace ; font-size: 9pt&quot;&gt;&lt;pre style=&quot;font-family: &amp;quot;monaco&amp;quot; , monospace ; font-size: 9pt&quot;&gt;&lt;pre style=&quot;font-family: &amp;quot;monaco&amp;quot; , monospace ; font-size: 9pt&quot;&gt;&lt;pre style=&quot;font-family: &amp;quot;monaco&amp;quot; , monospace ; font-size: 9pt&quot;&gt;&lt;pre style=&quot;font-family: &amp;quot;monaco&amp;quot; , monospace ; font-size: 9pt&quot;&gt;&lt;pre style=&quot;font-family: &amp;quot;monaco&amp;quot; , monospace ; font-size: 9pt&quot;&gt;&lt;pre style=&quot;font-family: &amp;quot;monaco&amp;quot; , monospace ; font-size: 9pt&quot;&gt;&lt;pre style=&quot;font-family: monaco, monospace; font-size: 9pt;&quot;&gt;&lt;span style=&quot;color: #629755 ; font-style: italic&quot;&gt;org.springframework.beans.factory.config.BeanPostProcessor&lt;/span&gt;&lt;/pre&gt;&lt;/pre&gt;&lt;/pre&gt;&lt;/pre&gt;&lt;/pre&gt;&lt;/pre&gt;&lt;/pre&gt;&lt;/pre&gt;&lt;/pre&gt;&lt;/pre&gt;" style="rounded=1;whiteSpace=wrap;html=1;absoluteArcSize=1;arcSize=14;strokeWidth=2;labelBackgroundColor=#FFFFFF;" vertex="1" parent="1">
          <mxGeometry x="-530" y="1240" width="451.57" height="40" as="geometry" />
        </mxCell>
        <mxCell id="FoT4ogBL0ZoOoOP0HEYb-86" value="&lt;pre style=&quot;color: rgb(169 , 183 , 198) ; font-family: &amp;quot;monaco&amp;quot; , monospace ; font-size: 9pt&quot;&gt;&lt;pre style=&quot;font-family: &amp;quot;monaco&amp;quot; , monospace ; font-size: 9pt&quot;&gt;&lt;pre style=&quot;font-family: &amp;quot;monaco&amp;quot; , monospace ; font-size: 9pt&quot;&gt;&lt;pre style=&quot;font-family: &amp;quot;monaco&amp;quot; , monospace ; font-size: 9pt&quot;&gt;&lt;pre style=&quot;font-family: &amp;quot;monaco&amp;quot; , monospace ; font-size: 9pt&quot;&gt;&lt;pre style=&quot;font-family: &amp;quot;monaco&amp;quot; , monospace ; font-size: 9pt&quot;&gt;&lt;pre style=&quot;font-family: &amp;quot;monaco&amp;quot; , monospace ; font-size: 9pt&quot;&gt;&lt;pre style=&quot;font-family: &amp;quot;monaco&amp;quot; , monospace ; font-size: 9pt&quot;&gt;&lt;pre style=&quot;font-family: &amp;quot;monaco&amp;quot; , monospace ; font-size: 9pt&quot;&gt;&lt;pre style=&quot;font-family: &amp;quot;monaco&amp;quot; , monospace ; font-size: 9pt&quot;&gt;&lt;pre style=&quot;font-family: &amp;quot;monaco&amp;quot; , monospace ; font-size: 9pt&quot;&gt;&lt;pre style=&quot;font-family: monaco, monospace; font-size: 9pt;&quot;&gt;&lt;span style=&quot;color: #629755 ; font-style: italic&quot;&gt;org.springframework.beans.factory.support.RootBeanDefinition&lt;/span&gt;&lt;/pre&gt;&lt;/pre&gt;&lt;/pre&gt;&lt;/pre&gt;&lt;/pre&gt;&lt;/pre&gt;&lt;/pre&gt;&lt;/pre&gt;&lt;/pre&gt;&lt;/pre&gt;&lt;/pre&gt;&lt;/pre&gt;" style="rounded=1;whiteSpace=wrap;html=1;absoluteArcSize=1;arcSize=14;strokeWidth=2;labelBackgroundColor=#FFFFFF;" vertex="1" parent="1">
          <mxGeometry x="-480" y="1480" width="465.4" height="40" as="geometry" />
        </mxCell>
        <mxCell id="FoT4ogBL0ZoOoOP0HEYb-88" value="&lt;pre style=&quot;color: rgb(169 , 183 , 198) ; font-family: &amp;quot;monaco&amp;quot; , monospace ; font-size: 9pt&quot;&gt;&lt;pre style=&quot;font-family: &amp;quot;monaco&amp;quot; , monospace ; font-size: 9pt&quot;&gt;&lt;pre style=&quot;font-family: &amp;quot;monaco&amp;quot; , monospace ; font-size: 9pt&quot;&gt;&lt;pre style=&quot;font-family: &amp;quot;monaco&amp;quot; , monospace ; font-size: 9pt&quot;&gt;&lt;pre style=&quot;font-family: &amp;quot;monaco&amp;quot; , monospace ; font-size: 9pt&quot;&gt;&lt;pre style=&quot;font-family: &amp;quot;monaco&amp;quot; , monospace ; font-size: 9pt&quot;&gt;&lt;pre style=&quot;font-family: &amp;quot;monaco&amp;quot; , monospace ; font-size: 9pt&quot;&gt;&lt;pre style=&quot;font-family: &amp;quot;monaco&amp;quot; , monospace ; font-size: 9pt&quot;&gt;&lt;pre style=&quot;font-family: &amp;quot;monaco&amp;quot; , monospace ; font-size: 9pt&quot;&gt;&lt;pre style=&quot;font-family: &amp;quot;monaco&amp;quot; , monospace ; font-size: 9pt&quot;&gt;&lt;pre style=&quot;font-family: &amp;quot;monaco&amp;quot; , monospace ; font-size: 9pt&quot;&gt;&lt;pre style=&quot;font-family: &amp;quot;monaco&amp;quot; , monospace ; font-size: 9pt&quot;&gt;&lt;pre style=&quot;font-family: monaco, monospace; font-size: 9pt;&quot;&gt;&lt;span style=&quot;color: #629755 ; font-style: italic&quot;&gt;org.springframework.beans.factory.config.BeanPostProcessor&lt;/span&gt;&lt;/pre&gt;&lt;/pre&gt;&lt;/pre&gt;&lt;/pre&gt;&lt;/pre&gt;&lt;/pre&gt;&lt;/pre&gt;&lt;/pre&gt;&lt;/pre&gt;&lt;/pre&gt;&lt;/pre&gt;&lt;/pre&gt;&lt;/pre&gt;" style="rounded=1;whiteSpace=wrap;html=1;absoluteArcSize=1;arcSize=14;strokeWidth=2;labelBackgroundColor=#FFFFFF;" vertex="1" parent="1">
          <mxGeometry x="-520" y="1600" width="457.7" height="50" as="geometry" />
        </mxCell>
        <mxCell id="FoT4ogBL0ZoOoOP0HEYb-90" value="&lt;pre style=&quot;color: rgb(169 , 183 , 198) ; font-family: &amp;quot;monaco&amp;quot; , monospace ; font-size: 9pt&quot;&gt;&lt;pre style=&quot;font-family: &amp;quot;monaco&amp;quot; , monospace ; font-size: 9pt&quot;&gt;&lt;pre style=&quot;font-family: &amp;quot;monaco&amp;quot; , monospace ; font-size: 9pt&quot;&gt;&lt;pre style=&quot;font-family: &amp;quot;monaco&amp;quot; , monospace ; font-size: 9pt&quot;&gt;&lt;pre style=&quot;font-family: &amp;quot;monaco&amp;quot; , monospace ; font-size: 9pt&quot;&gt;&lt;pre style=&quot;font-family: &amp;quot;monaco&amp;quot; , monospace ; font-size: 9pt&quot;&gt;&lt;pre style=&quot;font-family: &amp;quot;monaco&amp;quot; , monospace ; font-size: 9pt&quot;&gt;&lt;pre style=&quot;font-family: &amp;quot;monaco&amp;quot; , monospace ; font-size: 9pt&quot;&gt;&lt;pre style=&quot;font-family: &amp;quot;monaco&amp;quot; , monospace ; font-size: 9pt&quot;&gt;&lt;pre style=&quot;font-family: &amp;quot;monaco&amp;quot; , monospace ; font-size: 9pt&quot;&gt;&lt;pre style=&quot;font-family: &amp;quot;monaco&amp;quot; , monospace ; font-size: 9pt&quot;&gt;&lt;pre style=&quot;font-family: &amp;quot;monaco&amp;quot; , monospace ; font-size: 9pt&quot;&gt;&lt;pre style=&quot;font-family: &amp;quot;monaco&amp;quot; , monospace ; font-size: 9pt&quot;&gt;&lt;pre style=&quot;font-family: &amp;quot;monaco&amp;quot; , monospace ; font-size: 9pt&quot;&gt;&lt;pre style=&quot;font-family: &amp;quot;monaco&amp;quot; , monospace ; font-size: 9pt&quot;&gt;&lt;pre style=&quot;font-family: monaco, monospace; font-size: 9pt;&quot;&gt;&lt;span style=&quot;color: #629755 ; font-style: italic&quot;&gt;org.springframework.beans.factory.support.RootBeanDefinition&lt;/span&gt;&lt;/pre&gt;&lt;/pre&gt;&lt;/pre&gt;&lt;/pre&gt;&lt;/pre&gt;&lt;/pre&gt;&lt;/pre&gt;&lt;/pre&gt;&lt;/pre&gt;&lt;/pre&gt;&lt;/pre&gt;&lt;/pre&gt;&lt;/pre&gt;&lt;/pre&gt;&lt;/pre&gt;&lt;/pre&gt;" style="rounded=1;whiteSpace=wrap;html=1;absoluteArcSize=1;arcSize=14;strokeWidth=2;labelBackgroundColor=#FFFFFF;" vertex="1" parent="1">
          <mxGeometry x="-480" y="1990" width="468.85" height="50" as="geometry" />
        </mxCell>
      </root>
    </mxGraphModel>
  </diagram>
</mxfile>
